<?xml version="1.0"?>
<svg width="351" height="216" xmlns="http://www.w3.org/2000/svg" xmlns:svg="http://www.w3.org/2000/svg" preserveAspectRatio="xMidYMid meet" version="1.0">
 <g class="layer">
  <title>Layer 1</title>
  <g fill="#000000" id="svg_1" transform="matrix(0.1 0 0 -0.1 0 0)">
   <path d="m670,-22c-62,-25 -94,-76 -110,-175c-12,-72 -29,-100 -69,-115c-23,-9 -23,-10 -6,-29c9,-10 42,-29 71,-41c30,-13 53,-26 52,-30c-2,-5 -73,-58 -158,-120c-224,-162 -328,-237 -388,-281l-52,-39l17,-27c33,-53 32,-53 66,-38c18,8 117,53 222,100c104,47 191,86 193,86c7,0 5,-5 -173,-475c-32,-82 -72,-190 -90,-240c-18,-49 -43,-114 -54,-143l-21,-54l90,8c97,7 98,6 79,-43c-6,-15 -42,-116 -79,-223c-67,-194 -68,-195 -99,-198c-27,-3 -31,-7 -31,-33l0,-29l1690,0l1690,0l0,30l0,30l-426,0c-424,0 -425,0 -419,20c4,12 46,103 94,203c48,100 100,208 115,240c14,31 28,57 30,57c6,0 88,-71 270,-232c91,-82 169,-148 173,-148c5,0 26,12 49,28l41,27l-67,100c-36,55 -130,195 -208,311c-78,117 -145,219 -148,227c-4,13 35,37 178,108c100,50 185,93 186,94c6,6 -22,75 -29,75c-4,0 -94,-21 -199,-46c-105,-25 -194,-44 -196,-41c-3,3 2,16 11,30c27,42 30,117 7,163c-24,48 -47,69 -95,89c-134,56 -272,-55 -246,-199c9,-49 36,-86 82,-111c20,-11 37,-22 37,-25c-1,-5 -63,-41 -353,-206c-57,-32 -102,-52 -110,-48c-12,8 -273,209 -291,225c-5,5 9,26 33,49l43,42l22,-21c13,-12 36,-25 52,-30c37,-11 106,0 112,17c2,7 -14,30 -36,52c-36,36 -45,40 -90,40l-49,0l-5,44c-7,57 -40,104 -92,127c-74,34 -145,21 -208,-38l-26,-25l-30,22c-25,19 -40,22 -87,18c-87,-7 -97,-33 -31,-82c20,-15 41,-21 77,-19c47,1 49,0 49,-27c0,-16 3,-36 7,-46c10,-27 -32,-12 -217,76c-91,43 -174,80 -184,81c-21,4 -61,-54 -52,-76c2,-6 39,-34 83,-60c365,-226 333,-200 289,-234c-215,-166 -376,-295 -376,-301c0,-4 26,-18 58,-30c31,-13 61,-26 65,-30c5,-4 -12,-41 -36,-81c-137,-229 -196,-334 -189,-341c4,-4 28,-10 52,-13l45,-5l152,185l153,185l52,-21c29,-12 77,-30 106,-41c28,-11 52,-25 52,-31c0,-7 9,-70 20,-142c27,-180 27,-185 -9,-185c-24,0 -29,5 -35,31c-3,17 -6,45 -6,61c0,45 -15,26 -29,-37l-12,-55l-262,0c-245,0 -377,11 -377,31c0,5 17,36 37,71l37,62l-60,176c-32,96 -60,180 -62,187c-2,8 20,14 67,19c39,3 71,9 71,12c0,2 -18,68 -41,146c-46,162 -154,539 -174,608c-7,25 -11,49 -8,52c3,2 37,-19 77,-48c39,-29 100,-74 135,-99l65,-47l26,47l26,48l-203,209l-204,210l46,17c25,10 62,30 82,45l36,27l-36,18c-20,11 -38,23 -41,28c-4,5 -13,47 -21,92c-16,93 -34,124 -91,156c-42,25 -128,30 -174,12zm1634,-1469c8,0 97,32 197,71c99,38 184,69 188,67c4,-2 -8,-73 -26,-158c-19,-85 -56,-252 -82,-370l-47,-215l-32,-3c-18,-2 -32,-2 -32,0c0,2 20,92 44,201l45,198l-26,105c-24,96 -28,105 -47,101c-15,-4 -182,-62 -203,-71c0,-1 30,-121 67,-268l68,-268l-235,0l-236,0l8,128c4,70 8,129 10,131c2,2 24,-5 50,-14c25,-10 48,-16 50,-13c5,5 -44,227 -95,429c-17,65 -30,121 -30,124c0,4 78,-34 174,-84c95,-50 181,-91 190,-91zm-1434,-172c18,-40 71,-153 116,-251c46,-97 84,-179 84,-182c0,-3 -166,-5 -370,-5c-203,0 -370,2 -370,4c0,6 230,480 236,486c5,4 115,13 230,18l41,2l33,-72z" fill="#0077c8" id="svg_2" transform="matrix(1 0 0 1 0 0)"/>
   <path d="m2047,-1487c8,-32 19,-76 25,-98l11,-40l18,65c11,36 19,71 19,77c0,10 -68,53 -84,53c-2,0 3,-26 11,-57z" fill="#0077c8" id="svg_3"/>
   <path d="m2089,-30c-78,-41 -128,-132 -114,-209c9,-51 49,-115 87,-139l32,-20l-100,-64c-406,-262 -574,-372 -574,-378c0,-4 12,-12 26,-19c23,-10 30,-9 48,8c47,45 175,68 224,42c18,-9 29,-8 59,8c21,11 65,32 98,46c52,23 61,24 71,11c6,-8 39,-30 75,-48c57,-30 67,-40 94,-94c27,-55 34,-62 67,-68c20,-3 51,-18 69,-33c32,-27 79,-113 79,-144c0,-28 -117,-63 -174,-52c-38,7 -35,4 67,-76l78,-62l65,37c36,20 68,42 71,49c2,8 -5,118 -17,245c-12,128 -19,234 -16,237c3,3 44,-19 92,-48l87,-52l20,28c11,15 38,40 59,55l39,29l-148,117c-81,64 -176,139 -210,166c-35,28 -63,51 -63,53c0,2 16,13 35,25c40,25 80,88 90,141c14,78 -36,169 -116,210c-51,26 -150,25 -200,-1z" fill="#0077c8" id="svg_4"/>
  </g>
 </g>
</svg>