<?xml version="1.0"?>
<svg width="1024" height="224" xmlns="http://www.w3.org/2000/svg" xmlns:svg="http://www.w3.org/2000/svg" preserveAspectRatio="xMidYMid meet" version="1.0">
 <g class="layer">
  <title>Layer 1</title>
  <g fill="#000000" id="svg_1" transform="translate(0 224) matrix(0.1 0 0 -0.1 0 0)">
   <path d="m670,2219c-62,-25 -94,-76 -110,-175c-12,-72 -29,-100 -69,-115c-23,-9 -23,-10 -6,-29c9,-10 41,-29 71,-41c30,-13 54,-26 54,-29c0,-4 -44,-38 -97,-77c-54,-38 -150,-107 -213,-153c-63,-46 -152,-110 -197,-142c-45,-32 -84,-62 -86,-66c-3,-4 6,-24 19,-45c24,-37 25,-37 57,-23c17,8 117,53 222,100c104,47 191,86 193,86c7,0 5,-5 -173,-475c-32,-82 -72,-190 -90,-240c-18,-49 -43,-114 -54,-143l-21,-54l90,8c97,7 98,6 79,-43c-6,-15 -42,-116 -79,-223c-67,-194 -68,-195 -99,-198c-30,-3 -31,-5 -31,-53l0,-49l1720,0l1720,0l0,50l0,50l-456,0l-455,0l7,22c4,12 44,99 89,193c45,93 97,200 114,238c17,37 33,67 35,67c6,0 87,-70 270,-232c91,-82 169,-148 173,-148c5,0 26,12 49,28l41,27l-67,100c-36,55 -130,195 -208,311c-78,117 -145,219 -148,227c-4,13 35,37 178,108c100,50 185,93 186,94c6,6 -22,75 -29,75c-4,0 -94,-21 -199,-46c-105,-25 -194,-44 -196,-41c-3,3 2,16 11,30c27,42 30,117 7,163c-24,48 -47,69 -95,89c-134,56 -272,-55 -246,-199c9,-49 36,-86 82,-111c20,-11 37,-22 37,-25c-1,-5 -63,-41 -353,-206c-58,-33 -102,-52 -110,-48c-13,9 -276,211 -291,225c-5,5 9,26 33,49l43,42l22,-21c13,-12 36,-25 52,-30c37,-11 106,0 112,17c2,7 -14,30 -36,52c-36,36 -45,40 -90,40l-49,0l-5,44c-7,57 -40,104 -92,127c-74,34 -145,21 -208,-38l-26,-25l-30,22c-25,19 -40,22 -87,18c-87,-7 -97,-33 -31,-82c20,-15 41,-21 77,-19c47,1 49,0 49,-27c0,-16 3,-36 7,-46c10,-27 -32,-12 -217,76c-91,43 -174,80 -184,81c-21,4 -61,-54 -52,-76c2,-6 39,-34 83,-60c365,-226 333,-200 289,-234c-215,-166 -376,-295 -376,-301c0,-4 26,-18 58,-30c31,-13 61,-26 65,-30c5,-4 -12,-41 -36,-81c-137,-229 -196,-334 -189,-341c4,-4 28,-10 52,-13l45,-5l152,185l153,185l52,-21c29,-12 77,-30 106,-41c28,-11 52,-25 52,-31c0,-7 9,-70 20,-142c27,-180 27,-185 -9,-185c-24,0 -29,5 -35,31c-3,17 -6,45 -6,61c0,45 -15,26 -29,-37l-12,-55l-263,0c-247,0 -376,11 -376,31c0,4 17,36 37,71l37,62l-60,176c-32,96 -60,180 -62,187c-2,8 20,14 67,19c39,3 71,9 71,12c0,2 -18,68 -41,146c-46,162 -154,539 -174,608c-7,25 -11,49 -8,52c3,2 33,-15 67,-40c33,-25 94,-70 135,-100l75,-54l26,47l26,48l-203,209l-204,210l46,17c25,10 62,30 82,45l36,27l-36,18c-20,11 -38,23 -41,28c-4,5 -13,47 -21,92c-16,93 -34,124 -91,156c-42,25 -128,30 -174,12zm1634,-1469c8,0 97,32 197,71c99,38 184,69 188,67c4,-2 -8,-73 -26,-158c-19,-85 -56,-252 -82,-370l-47,-215l-32,-3c-18,-2 -32,-2 -32,0c0,2 20,92 44,201l45,198l-26,105c-24,96 -28,105 -47,101c-15,-4 -182,-62 -203,-71c0,-1 30,-121 67,-268l68,-268l-235,0l-236,0l8,128c4,70 8,129 10,131c2,2 24,-5 50,-14c25,-10 48,-16 50,-13c5,5 -44,227 -95,429c-17,65 -30,121 -30,124c0,4 78,-34 174,-84c95,-50 181,-91 190,-91zm-1434,-172c18,-40 71,-153 116,-251c46,-97 84,-179 84,-182c0,-3 -166,-5 -370,-5c-203,0 -370,2 -370,4c0,7 230,479 236,485c5,5 114,14 230,19l41,2l33,-72z" fill="#0077c8" id="svg_2"/>
   <path d="m2047,753c8,-32 19,-76 25,-98l11,-40l18,65c11,36 19,71 19,77c0,10 -68,53 -84,53c-2,0 3,-26 11,-57z" fill="#0077c8" id="svg_3"/>
   <path d="m2089,2210c-78,-41 -128,-132 -114,-209c9,-51 49,-115 87,-139l32,-20l-100,-64c-406,-262 -574,-372 -574,-378c0,-4 12,-12 26,-19c23,-10 30,-9 48,8c47,44 175,68 224,42c17,-9 30,-7 69,13c117,59 146,69 158,52c6,-8 40,-30 76,-48c57,-30 67,-40 94,-94c27,-55 34,-62 67,-68c20,-3 51,-18 69,-33c32,-27 79,-113 79,-144c0,-28 -117,-63 -174,-52c-38,7 -35,4 67,-76l78,-62l65,37c36,20 68,42 71,49c2,8 -5,118 -17,245c-12,128 -19,234 -16,237c3,3 44,-19 92,-48l87,-52l20,28c11,15 38,40 59,55l39,29l-148,117c-81,64 -176,139 -210,166c-35,28 -63,51 -63,53c0,2 16,13 35,25c40,25 80,88 90,141c14,78 -36,169 -116,210c-51,26 -150,25 -200,-1z" fill="#0077c8" id="svg_4"/>
   <path d="m7740,885c0,-404 4,-631 11,-665c16,-76 64,-140 128,-173c47,-23 67,-27 138,-27c46,0 104,5 129,11c41,11 45,14 40,38c-3,14 -10,52 -16,83l-11,56l-55,-5c-67,-7 -96,6 -121,56c-17,33 -18,82 -21,639l-3,602l-109,0l-110,0l0,-615z" fill="#0077c8" id="svg_5"/>
   <path d="m10000,1286l0,-213l-57,13c-70,17 -233,18 -305,3c-120,-25 -239,-110 -297,-213c-49,-85 -65,-163 -65,-316c0,-200 28,-288 123,-392c96,-105 245,-158 446,-158c122,0 186,9 305,41l80,21l0,714l0,714l-115,0l-115,0l0,-214zm-52,-381l52,-16l0,-334l0,-334l-22,-13c-15,-8 -63,-13 -138,-13c-127,0 -170,14 -238,79c-76,71 -112,208 -93,351c13,89 30,133 71,185c76,96 230,136 368,95z" fill="#0077c8" id="svg_6"/>
   <path d="m6042,1400c-93,-25 -184,-73 -224,-119c-17,-19 -43,-60 -57,-91c-22,-48 -26,-68 -26,-155c0,-93 2,-105 33,-167c56,-115 136,-170 357,-248c236,-82 311,-152 285,-265c-11,-50 -72,-107 -138,-130c-116,-39 -314,-24 -455,35c-39,16 -73,28 -75,25c-8,-8 -32,-159 -28,-172c8,-21 166,-74 269,-89c343,-53 604,65 663,299c33,127 -3,256 -96,347c-59,58 -128,92 -299,151c-134,46 -232,103 -256,149c-42,81 -16,175 59,217c109,60 314,51 473,-22l52,-23l11,51c6,29 14,70 17,93l5,41l-49,21c-158,68 -382,90 -521,52z" fill="#0077c8" id="svg_7"/>
   <path d="m3760,715l0,-685l453,2l452,3l3,92l3,93l-338,2l-338,3l-3,218l-2,217l300,0l300,0l0,90l0,90l-297,2l-298,3l-3,183l-2,182l340,0l340,0l0,95l0,95l-455,0l-455,0l0,-685z" fill="#0077c8" id="svg_8"/>
   <path d="m5130,1099c-148,-15 -253,-77 -301,-177c-30,-62 -32,-198 -5,-252c56,-108 105,-139 296,-186c207,-50 250,-78 250,-157c0,-31 -7,-46 -33,-72c-47,-47 -99,-58 -242,-53c-96,4 -136,10 -199,32c-43,15 -79,25 -81,24c-4,-6 -25,-136 -25,-155c0,-22 49,-42 165,-69c93,-21 318,-21 398,0c118,32 182,79 224,164c23,48 28,70 28,137c0,67 -5,89 -28,137c-48,98 -115,137 -316,184c-172,41 -225,73 -225,138c0,42 25,80 67,103c26,15 56,18 157,18c111,-1 133,-4 195,-28c38,-14 73,-23 76,-19c7,7 29,126 29,155c0,10 -20,23 -53,36c-100,37 -254,53 -377,40z" fill="#0077c8" id="svg_9" transform="matrix(1 0 0 1 0 0)"/>
   <path d="m6984,1095c-45,-7 -113,-20 -153,-30c-81,-20 -79,-16 -59,-133l12,-69l45,14c102,31 191,45 291,46c120,2 181,-18 218,-70c24,-33 41,-99 42,-154l0,-36l-179,-6c-206,-7 -295,-24 -372,-70c-90,-54 -123,-125 -123,-262c0,-130 42,-204 144,-254c97,-49 141,-56 335,-56c176,0 225,6 358,42l58,16l-3,386l-3,386l-33,68c-39,78 -103,136 -179,161c-113,37 -253,44 -399,21zm394,-734c2,-99 -1,-158 -8,-166c-17,-20 -146,-38 -223,-32c-85,7 -154,39 -184,86c-32,47 -32,135 0,181c46,70 111,89 292,87l120,-2l3,-154z" fill="#0077c8" id="svg_10"/>
   <path d="m8210,738c0,-189 5,-372 10,-407c21,-127 85,-211 204,-267c101,-48 165,-57 346,-51c157,6 229,18 333,57l57,21l0,495l0,494l-115,0l-115,0l0,-425l0,-424l-66,-21c-82,-25 -219,-27 -287,-4c-55,19 -111,77 -126,131c-7,23 -11,173 -11,391l0,352l-115,0l-115,0l0,-342z" fill="#0077c8" id="svg_11"/>
  </g>
 </g>
</svg>